<?xml version="1.0" encoding="utf-8"?>
<!-- Generator: Adobe Illustrator 19.0.0, SVG Export Plug-In . SVG Version: 6.00 Build 0)  -->
<svg version="1.1" baseProfile="basic" id="Layer_1"
	 xmlns="http://www.w3.org/2000/svg" xmlns:xlink="http://www.w3.org/1999/xlink" x="0px" y="0px" viewBox="0 0 419.3 410.5"
	 xml:space="preserve">
<style type="text/css">
	.st0{stroke:#000000;stroke-width:8;stroke-miterlimit:10;}
	.st1{fill:#FFFFFF;}
</style>
<g>
	<path class="st0" d="M165.4,40c5,0,10,0,15,0c0.4,0.3,0.7,0.7,1.1,0.8c23.7,3.6,41.9,21.2,45.8,48.6c0.5,3.2,1.6,4.2,4.7,4.1
		c11-0.1,22-0.2,33,0c19.1,0.3,37,5,52.6,16.1c27,19.2,37.7,46.4,37.7,78.6c0,9.8-5.3,14.7-15.1,14.3c-2.4-0.1-4.9,0-7.6,0
		c-0.8,9.5-1.4,18.7-2.3,28c-2.6,28.2-10,54.9-25,79.2c-14.1,22.9-33.2,39.3-60.1,45.1c-5.6,1.2-10.2,3.4-14.4,7.3
		c-13.8,12.6-23.5,12.8-38.7,2.1c-5.3-3.7-11.5-7-17.7-8.7c-21.7-6.1-39.2-18.1-52.4-36.2c-19.9-27.3-28.6-58.6-31.7-91.8
		c-0.8-8.1-1-16.2-1.5-24.5c-9.5-0.4-20.2,2-23.6-10.9c0-2,0-4,0-6c0.3-1.6,0.9-3.1,1-4.7c0.8-13.1,3.5-25.8,9.2-37.6
		c12.9-26.8,32.7-45.9,63.2-49.1c20.3-2.2,40.9-1,61.4-1.4c1.1,0,2.2-0.1,3.5-0.2c0.1-1.1,0.2-1.9,0.2-2.7
		c-1-13.6-11.3-23.8-26.5-26.3c-4.9-0.8-10-0.8-14.8-2c-8.7-2.3-10.6-11.4-4-17.4C160.5,42.8,163.1,41.6,165.4,40z M308.8,203.2
		c-66.1,0-131.1,0-197,0c0.5,9.6,0.7,18.9,1.6,28.1c2.2,23.3,8.5,45.4,20.9,65.5c11.7,19,27.4,32.4,50.1,36.3
		c7.7,1.3,14.5,4.8,20.1,10.3c4.9,4.9,5.7,5,11,0.3c6.7-6,14.1-10.1,23.1-12c13.3-2.8,24.9-9.4,34.4-19.2
		C302.4,281.9,308.3,243.7,308.8,203.2z M153.2,172.3c8.8-8.3,17.4-16.4,26.2-24.7c-8-7.4-15.8-14.6-24-22.2
		c-7.5,7.9-14.7,15.5-22.1,23.4C139.6,156.3,146.3,164.1,153.2,172.3z M268.1,171.1c7.8-7.8,15.3-15.2,21.6-21.5
		c-6.4-7.2-13.3-14.9-20.2-22.7c-8.3,6.7-16,12.8-24,19.2C253.5,154.9,261.1,163.3,268.1,171.1z M213.7,127.4
		c-7.9,6.7-15.4,13.1-23.3,19.7c7.3,7.7,14.2,15.1,21.3,22.7c6.7-7.7,12.9-15,19.5-22.5C225.4,140.6,219.6,134.2,213.7,127.4z
		 M340.5,174.2c-5.9-14.3-11.6-28-17.5-42.2c-6.4,5.5-12.2,10.6-18.2,15.8c9.6,10.4,18.7,20.3,27.9,30.2
		C335.3,176.8,337.7,175.6,340.5,174.2z M184.9,160.8c-6.1,5.5-12.4,11.3-18.7,17.1c8.8,9.3,25.1,7.5,33-3.2
		C194.3,169.8,189.3,165,184.9,160.8z M319.1,183.2c-7.6-8.2-14.1-15.2-19.7-21.3c-6.3,6.3-12.1,12.1-17.9,17.9
		C292.6,186.1,305.3,182.3,319.1,183.2z M223.2,174.3c9.7,11.1,25.5,13,33.4,3.3c-6.2-5.5-12.5-11.1-19.1-16.9
		C233.3,164.8,228.3,169.6,223.2,174.3z M201.4,121.9c-10.3-10.9-24.1-12.6-33-3.3c5.9,6.3,11.7,12.7,16.9,18.3
		C190.9,131.6,196.1,126.8,201.4,121.9z M224.1,120.2c5,5.3,9.9,10.5,14.8,15.8c3.1-2.7,6-5.2,8.9-7.6c2.9-2.4,5.9-4.6,8.9-6.9
		C248.9,110.6,234.6,110.3,224.1,120.2z M141.4,180.1c-5.5-6.6-10.4-12.5-15.6-18.7c-6.7,7.1-12.9,13.6-19.3,20.4
		C117.8,181.1,129.4,187.3,141.4,180.1z M113.7,149.6c-4.4-4.6-8.5-8.9-13.1-13.7c-5.4,13.6-10.5,26.4-15.6,39.3
		c0.4,0.2,0.8,0.5,1.1,0.7C95.2,167.2,104.3,158.5,113.7,149.6z M113.4,125.8c4.2,3.9,8.3,7.6,11.6,10.7
		c6.3-6.3,12.3-12.3,18.3-18.3C135.8,112.2,126.8,114.2,113.4,125.8z M281.1,117.2c5.7,7,11.1,13.7,16.7,20.6
		c4.2-3.7,7.7-6.8,11.3-9.9C299.5,116.8,288.6,112.4,281.1,117.2z"/>
	<path class="st1" d="M308.8,203.2c-0.5,40.5-6.4,78.7-35.8,109.3c-9.4,9.8-21.1,16.5-34.4,19.2c-9,1.9-16.4,5.9-23.1,12
		c-5.3,4.8-6.1,4.6-11-0.3c-5.6-5.6-12.4-9-20.1-10.3c-22.7-3.9-38.4-17.3-50.1-36.3c-12.4-20.1-18.7-42.1-20.9-65.5
		c-0.9-9.2-1.1-18.5-1.6-28.1C177.7,203.2,242.7,203.2,308.8,203.2z"/>
	<path class="st1" d="M153.2,172.3c-6.9-8.1-13.6-15.9-20-23.4c7.5-7.9,14.6-15.5,22.1-23.4c8.2,7.6,16,14.8,24,22.2
		C170.6,155.9,162,163.9,153.2,172.3z"/>
	<path class="st1" d="M268.1,171.1c-7-7.8-14.6-16.1-22.6-25c8-6.4,15.7-12.6,24-19.2c6.9,7.8,13.7,15.5,20.2,22.7
		C283.4,155.9,275.9,163.3,268.1,171.1z"/>
	<path class="st1" d="M213.7,127.4c6,6.7,11.7,13.2,17.6,19.8c-6.5,7.6-12.8,14.8-19.5,22.5c-7.2-7.6-14.1-14.9-21.3-22.7
		C198.2,140.5,205.8,134.1,213.7,127.4z"/>
	<path class="st1" d="M340.5,174.2c-2.8,1.4-5.1,2.5-7.7,3.8c-9.2-9.9-18.3-19.8-27.9-30.2c6-5.2,11.8-10.3,18.2-15.8
		C328.8,146.2,334.5,159.9,340.5,174.2z"/>
	<path class="st1" d="M184.9,160.8c4.4,4.2,9.4,9,14.3,13.8c-7.9,10.7-24.2,12.6-33,3.2C172.5,172.1,178.8,166.3,184.9,160.8z"/>
	<path class="st1" d="M319.1,183.2c-13.9-0.9-26.5,2.9-37.6-3.4c5.8-5.8,11.5-11.6,17.9-17.9C305,167.9,311.5,175,319.1,183.2z"/>
	<path class="st1" d="M223.2,174.3c5-4.7,10.1-9.5,14.4-13.6c6.5,5.8,12.8,11.4,19.1,16.9C248.7,187.3,233,185.4,223.2,174.3z"/>
	<path class="st1" d="M201.4,121.9c-5.3,5-10.5,9.8-16.1,15c-5.2-5.6-11.1-11.9-16.9-18.3C177.3,109.3,191.1,110.9,201.4,121.9z"/>
	<path class="st1" d="M224.1,120.2c10.5-9.9,24.8-9.6,32.6,1.2c-2.9,2.3-6,4.5-8.9,6.9c-2.9,2.4-5.8,4.9-8.9,7.6
		C234,130.7,229.1,125.5,224.1,120.2z"/>
	<path class="st1" d="M141.4,180.1c-12,7.2-23.6,1-34.9,1.7c6.4-6.8,12.6-13.4,19.3-20.4C131,167.6,135.9,173.6,141.4,180.1z"/>
	<path class="st1" d="M113.7,149.6c-9.3,8.9-18.4,17.6-27.6,26.3c-0.4-0.2-0.8-0.5-1.1-0.7c5.1-12.9,10.2-25.7,15.6-39.3
		C105.1,140.7,109.3,145,113.7,149.6z"/>
	<path class="st1" d="M113.4,125.8c13.5-11.6,22.4-13.6,30-7.6c-6,6-12.1,12.1-18.3,18.3C121.7,133.4,117.6,129.7,113.4,125.8z"/>
	<path class="st1" d="M281.1,117.2c7.5-4.8,18.5-0.4,27.9,10.7c-3.6,3.1-7.1,6.3-11.3,9.9C292.1,130.9,286.7,124.2,281.1,117.2z"/>
</g>
</svg>
