<?xml version="1.0" encoding="utf-8"?>
<!-- Generator: Adobe Illustrator 19.0.0, SVG Export Plug-In . SVG Version: 6.00 Build 0)  -->
<svg version="1.1" baseProfile="basic" id="Layer_1"
	 xmlns="http://www.w3.org/2000/svg" xmlns:xlink="http://www.w3.org/1999/xlink" x="0px" y="0px" viewBox="0 0 57 63"
	 xml:space="preserve">
<style type="text/css">
	.st0{fill:#FFFFFF;}
</style>
<g>
	<g id="XMLID_1_">
		<g>
			<path d="M28.5,11.6c10.9,0,19.9,8.9,19.9,19.9s-8.9,19.9-19.9,19.9S8.6,42.4,8.6,31.5S17.5,11.6,28.5,11.6z M40.2,34.1
				c0,0,0.8-6.3-5.1-6.3c-5.6,0-5.6,5.6-5.6,5.6S29.2,39,35.2,39c0,0,5,0.3,5-3.9h-2.6c0,0,0.1,1.6-2.3,1.6c0,0-2.6,0.2-2.6-2.5
				H40.2z M38,26.7v-1.8h-6v1.8H38z M29,34.4c0,0,0.2-3.6-2.7-3.6c0,0,2.2-0.2,2.2-2.8c0-2.6-1.8-3.9-4.1-3.9h-7.6v14.6h7.6
				C24.3,38.7,29,38.8,29,34.4z"/>
			<path class="st0" d="M35.2,27.8c5.9,0,5.1,6.3,5.1,6.3h-7.6c0,2.7,2.6,2.5,2.6,2.5c2.4,0,2.3-1.6,2.3-1.6h2.6c0,4.2-5,3.9-5,3.9
				c-6,0-5.6-5.6-5.6-5.6S29.5,27.8,35.2,27.8z M37.4,32.2c0,0,0-2.3-2.2-2.3c-2.3,0-2.6,2.3-2.6,2.3H37.4z"/>
			<rect x="32" y="24.9" class="st0" width="6" height="1.8"/>
			<path d="M35.2,29.9c2.3,0,2.2,2.3,2.2,2.3h-4.8C32.6,32.2,33,29.9,35.2,29.9z"/>
			<path class="st0" d="M26.2,30.7c2.9,0,2.7,3.6,2.7,3.6c0,4.5-4.6,4.3-4.6,4.3h-7.6V24.1h7.6c2.3,0,4.1,1.3,4.1,3.9
				C28.5,30.6,26.2,30.7,26.2,30.7z M24.1,36.1c0.6,0,1.8-0.2,1.8-1.9c0-2-1.5-2-1.5-2h-4.3v3.9h3.8C23.9,36.1,24,36.1,24.1,36.1z
				 M24.1,29.9c0.7,0,1.3-0.2,1.3-1.7s-1-1.5-1-1.5h-4.3v3.3H24.1z"/>
			<path d="M25.9,34.2c0,1.7-1.2,1.9-1.8,1.9c-0.1,0-0.2,0-0.3,0h-3.8v-3.9h4.3C24.4,32.2,25.9,32.2,25.9,34.2z"/>
			<path d="M25.3,28.2c0,1.5-0.6,1.7-1.3,1.7h-4v-3.3h4.3C24.3,26.7,25.3,26.7,25.3,28.2z"/>
		</g>
		<g>
		</g>
	</g>
</g>
</svg>
