<?xml version="1.0" encoding="utf-8"?>
<!-- Generator: Adobe Illustrator 19.1.0, SVG Export Plug-In . SVG Version: 6.00 Build 0)  -->
<svg version="1.1" baseProfile="basic" id="Layer_1"
	 xmlns="http://www.w3.org/2000/svg" xmlns:xlink="http://www.w3.org/1999/xlink" x="0px" y="0px" viewBox="0 0 612 389"
	 xml:space="preserve">
<style type="text/css">
	.st0{fill:#3B3B3B;}
	.st1{fill:#797979;}
	.st2{fill:#454545;}
</style>
<g>
	<g>
		<g id="XMLID_1_">
			<g>
				<path class="st0" d="M274.5,291.4c0,0.1,0,0.1,0,0.2C274.5,291.5,274.5,291.4,274.5,291.4L274.5,291.4z"/>
				<path class="st0" d="M274.5,291.4h19.3c0,0.1,0,0.2,0,0.2c0,0.1,0,0.2,0,0.3v34.1c0,0.9,0,1.6,0.5,2c0.3,0.2,0.7,0.4,1.3,0.4
					h19.9c1.4,0,1.9-1.1,1.9-2v-34.6c0-0.1,0-0.2,0-0.4h19.2v35.2c0,0.5,0.1,1.1,0.5,1.4c0.3,0.3,0.7,0.4,1.3,0.4h24.4
					c0.6,0,1.2,0.1,1.8,0.2c0.1,0,0.1,0,0.2,0c0.3,0.1,0.6,0.1,0.8,0.2c0.2,0.1,0.3,0.1,0.5,0.2c2.6,1,4.7,3.1,5.7,5.7
					c0.1,0.1,0.1,0.3,0.1,0.4c0.1,0.3,0.2,0.5,0.2,0.8c0,0.1,0,0.1,0,0.2c0.1,0.6,0.2,1.2,0.2,1.8c0,0.7-0.1,1.3-0.2,1.9
					c-0.1,0.6-0.3,1.2-0.6,1.8c-0.1,0.1-0.1,0.3-0.2,0.4c-0.3,0.6-0.6,1.1-1,1.6c-0.3,0.4-0.6,0.7-0.9,1.1c-1.7,1.7-4.1,2.8-6.8,2.8
					H248.3c-5.3,0-9.6-4.3-9.6-9.6c0-2.6,1.1-5,2.8-6.8c0.3-0.3,0.7-0.6,1.1-0.9c0.5-0.4,1-0.7,1.6-1c0.1-0.1,0.3-0.1,0.4-0.2
					c0.6-0.2,1.2-0.4,1.8-0.6c0.6-0.1,1.3-0.2,1.9-0.2h24.2c0.7,0,1.2-0.1,1.5-0.4c0.5-0.4,0.5-1.2,0.5-2.2v-34c0-0.1,0-0.1,0-0.2
					C274.5,291.5,274.5,291.4,274.5,291.4z"/>
				<path class="st0" d="M293.8,291.4c0,0.1,0,0.2,0,0.2C293.7,291.5,293.7,291.4,293.8,291.4L293.8,291.4z"/>
				<path class="st1" d="M336.4,291.4h-19.2c-0.2-2.2-2.5-2.1-2.5-2.1h-18c0,0-2.6,0.1-2.9,2.1h-19.3c-0.2-2.9-3.3-2.7-3.3-2.7
					h-92.8c-6.3,0-11.4-5.1-11.4-11.4V81.4c0-6.3,5.1-11.4,11.4-11.4h254.2c6.3,0,11.4,5.1,11.4,11.4v195.8
					c0,6.3-5.1,11.4-11.4,11.4h-93.7c0,0-2.4,0-2.4,2.5V291.4z M427.2,240.8V100.2c0-6.3-5.1-11.4-11.4-11.4H195.1
					c-6.3,0-11.4,5.1-11.4,11.4v140.6c0,6.3,5.1,11.4,11.4,11.4h220.7C422,252.2,427.2,247.1,427.2,240.8z M316.7,270.8
					c0-6.2-5-11.2-11.2-11.2c-6.2,0-11.2,5-11.2,11.2c0,6.2,5,11.2,11.2,11.2C311.6,282,316.7,277,316.7,270.8z"/>
				<path class="st0" d="M293.7,325.9v-34.1c0-0.1,0-0.2,0-0.3c0,0.1,0,0.2,0,0.3L293.7,325.9c0,0.9,0,1.6,0.5,2
					C293.7,327.5,293.7,326.8,293.7,325.9z"/>
				<path class="st2" d="M316.7,270.8c0,6.2-5,11.2-11.2,11.2c-6.2,0-11.2-5-11.2-11.2c0-6.2,5-11.2,11.2-11.2
					C311.6,259.6,316.7,264.6,316.7,270.8z"/>
				<path class="st0" d="M372,335.9c-0.1-0.3-0.1-0.6-0.2-0.8C371.9,335.4,372,335.6,372,335.9z"/>
				<path class="st0" d="M371.8,335.1c0-0.1-0.1-0.3-0.1-0.4C371.7,334.8,371.8,335,371.8,335.1z"/>
				<path class="st1" d="M244.6,329.1c0.6-0.2,1.2-0.4,1.8-0.6C245.7,328.7,245.1,328.9,244.6,329.1z"/>
				<path class="st1" d="M365.9,329c-0.1-0.1-0.3-0.1-0.5-0.2C365.6,328.8,365.8,328.9,365.9,329z"/>
				<path class="st0" d="M370.3,343.7c-0.3,0.4-0.6,0.7-0.9,1.1C369.8,344.4,370,344.1,370.3,343.7z"/>
				<path class="st1" d="M365.5,328.8c-0.3-0.1-0.5-0.1-0.8-0.2C365,328.6,365.2,328.7,365.5,328.8z"/>
				<path class="st0" d="M372,339.9c-0.1,0.6-0.3,1.2-0.6,1.8C371.7,341.1,371.9,340.5,372,339.9z"/>
				<path class="st1" d="M272.5,328.4c0.7,0,1.2-0.1,1.5-0.4C273.7,328.2,273.2,328.4,272.5,328.4l-24.2,0c-0.7,0-1.3,0.1-1.9,0.2
					c0.6-0.1,1.3-0.2,1.9-0.2H272.5z"/>
				<path class="st1" d="M362.6,328.4h-24.4c-0.6,0-1-0.2-1.3-0.4c0.3,0.3,0.7,0.4,1.3,0.4L362.6,328.4c0.6,0,1.2,0.1,1.8,0.2
					C363.9,328.4,363.3,328.4,362.6,328.4z"/>
				<path class="st0" d="M372,339.9c0.1-0.6,0.2-1.3,0.2-1.9c0-0.6-0.1-1.2-0.2-1.8c0.1,0.6,0.2,1.2,0.2,1.9
					C372.2,338.6,372.2,339.3,372,339.9z"/>
				<path class="st1" d="M241.5,331.2c0.3-0.3,0.7-0.6,1.1-0.9C242.2,330.5,241.8,330.9,241.5,331.2z"/>
				<path class="st0" d="M371.3,342.1c-0.3,0.6-0.6,1.1-1,1.6C370.7,343.2,371,342.7,371.3,342.1z"/>
				<path class="st1" d="M242.6,330.3c0.5-0.4,1-0.7,1.6-1C243.6,329.6,243.1,329.9,242.6,330.3z"/>
			</g>
			<g>
			</g>
		</g>
	</g>
</g>
</svg>
