<?xml version="1.0" encoding="utf-8"?>
<!-- Generator: Adobe Illustrator 19.0.0, SVG Export Plug-In . SVG Version: 6.00 Build 0)  -->
<svg version="1.1" baseProfile="basic" id="Layer_1"
	 xmlns="http://www.w3.org/2000/svg" xmlns:xlink="http://www.w3.org/1999/xlink" x="0px" y="0px" viewBox="0 0 252 235.5"
	 xml:space="preserve">
<style type="text/css">
	.st0{fill:#FFFFFF;}
	.st1{fill:none;stroke:#000000;stroke-width:13;stroke-miterlimit:10;}
</style>
<g>
	<g id="XMLID_1_">
		<g>
			<path class="st0" d="M122.8,113c3.9,3.9,8.1,8.1,12,12c-11.8,13.4-23.9,27.1-36,40.8c-5.6-5.6-11.3-11.2-16.9-16.8
				C95.5,137,109.2,124.9,122.8,113z"/>
			<path class="st0" d="M170.8,60.1c5.5,5.5,11.3,11.3,16.8,16.9c-13.5,11.9-27.3,24-40.9,36c-3.9-3.9-8.1-8-12-12
				C146.8,87.3,158.9,73.6,170.8,60.1z"/>
			<path d="M91.5,100.8c-0.9-0.4-0.8-3.9,0.1-4.2c7.3-2.4,14.8-3.2,22.4-2.7c0.3,0,0.6,0,1.2-0.1c-0.7-3.4-1.6-6.7-2.1-10
				c-0.5-3.1-0.6-6.2-0.7-9.3c0-0.8,0.7-2.3,1.3-2.4c0.8-0.1,2.1,0.5,2.7,1.2c1.5,1.7,2.8,3.7,4.3,5.7c1.3-1.7,2.4-3.3,3.7-4.6
				c0.6-0.6,1.8-1.3,2.3-1c0.7,0.3,1.3,1.5,1.5,2.4c0.8,4.4,1.3,8.9,2,13.4c0.3,0,0.6,0.1,0.9,0.1c5-5.6,10.2-11,15.1-16.7
				c6.6-7.7,13-15.6,19.4-23.4c3-3.7,6.1-3.9,9.5-0.5c8.1,8.1,16.2,16.2,24.3,24.3c3.4,3.4,3.2,6.6-0.5,9.5
				c-35.3,27.7-66.7,59.1-94.4,94.4c-3.1,4-6.1,4.1-9.6,0.6c-8-8-16.1-16.1-24.1-24.1c-3.6-3.6-3.3-6.4,0.6-9.8
				c12.4-10.6,24.8-21.2,37.1-31.8c0.6-0.5,1.3-0.9,1.9-1.3c-0.2-0.3-0.3-0.7-0.5-1c-4,0.6-7.9,1.3-11.9,1.9c-1.1,0.1-3-2.8-2.5-3.8
				c0.7-1.4,1.7-2.6,2.8-4.2C95.8,102.3,93.5,101.7,91.5,100.8z M187.7,76.9c-5.6-5.6-11.3-11.3-16.8-16.9
				c-11.9,13.5-24,27.2-36.1,40.9c4,4,8.1,8.1,12,12C160.4,101,174.2,88.9,187.7,76.9z M134.8,125c-4-4-8.1-8.1-12-12
				c-13.6,12-27.3,24.1-40.9,36c5.6,5.6,11.3,11.3,16.9,16.8C110.9,152.1,123,138.4,134.8,125z"/>
		</g>
		<g>
			<path class="st1" d="M109.8,109.2c-4,0.6-7.9,1.3-11.9,1.9c-1.1,0.1-3-2.8-2.5-3.8c0.7-1.4,1.7-2.6,2.8-4.2
				c-2.4-0.8-4.6-1.4-6.7-2.3c-0.9-0.4-0.8-3.9,0.1-4.2c7.3-2.4,14.8-3.2,22.4-2.7c0.3,0,0.6,0,1.2-0.1c-0.7-3.4-1.6-6.7-2.1-10
				c-0.5-3.1-0.6-6.2-0.7-9.3c0-0.8,0.7-2.3,1.3-2.4c0.8-0.1,2.1,0.5,2.7,1.2c1.5,1.7,2.8,3.7,4.3,5.7c1.3-1.7,2.4-3.3,3.7-4.6
				c0.6-0.6,1.8-1.3,2.3-1c0.7,0.3,1.3,1.5,1.5,2.4c0.8,4.4,1.3,8.9,2,13.4c0.3,0,0.6,0.1,0.9,0.1c5-5.6,10.2-11,15.1-16.7
				c6.6-7.7,13-15.6,19.4-23.4c3-3.7,6.1-3.9,9.5-0.5c8.1,8.1,16.2,16.2,24.3,24.3c3.4,3.4,3.2,6.6-0.5,9.5
				c-35.3,27.7-66.7,59.1-94.4,94.4c-3.1,4-6.1,4.1-9.6,0.6c-8-8-16.1-16.1-24.1-24.1c-3.6-3.6-3.3-6.4,0.6-9.8
				c12.4-10.6,24.8-21.2,37.1-31.8c0.6-0.5,1.3-0.9,1.9-1.3C110.1,109.8,109.9,109.5,109.8,109.2z"/>
		</g>
	</g>
</g>
</svg>
