<?xml version="1.0" encoding="utf-8"?>
<!-- Generator: Adobe Illustrator 19.0.0, SVG Export Plug-In . SVG Version: 6.00 Build 0)  -->
<svg version="1.1" baseProfile="basic" id="Layer_1"
	 xmlns="http://www.w3.org/2000/svg" xmlns:xlink="http://www.w3.org/1999/xlink" x="0px" y="0px" viewBox="0 0 1160 991"
	 xml:space="preserve">
<style type="text/css">
	.st0{clip-path:url(#SVGID_2_);}
</style>
<g>
	<g>
		<defs>
			<rect id="SVGID_1_" x="354" y="215" width="451" height="563"/>
		</defs>
		<clipPath id="SVGID_2_">
			<use xlink:href="#SVGID_1_"  style="overflow:visible;"/>
		</clipPath>
		<path class="st0" d="M782.5,702.4h-406c-12.4,0-22.5,10.2-22.5,22.5v30c0,12.4,10.2,22.5,22.5,22.5h405.8
			c12.4,0,22.5-10.2,22.5-22.5v-30C805,712.4,794.9,702.4,782.5,702.4L782.5,702.4z M782.5,702.4"/>
	</g>
	<path d="M563.8,662.2c4.4,4.4,10.2,6.6,15.8,6.6c5.8,0,11.5-2.2,15.8-6.6l153.8-153.8c8.7-8.7,8.7-23,0-31.8l-21.3-21.3
		c-8.7-8.7-23-8.7-31.8,0l-79,79.1v-297c0-12.4-10.2-22.5-22.5-22.5h-30c-12.4,0-22.5,10-22.5,22.5v297L463,455.4
		c-8.7-8.7-23-8.7-31.8,0l-21.3,21.3c-8.7,8.7-8.7,23,0,31.8L563.8,662.2z M563.8,662.2"/>
</g>
</svg>
