<?xml version="1.0" encoding="utf-8"?>
<!-- Generator: Adobe Illustrator 19.0.0, SVG Export Plug-In . SVG Version: 6.00 Build 0)  -->
<svg version="1.1" baseProfile="basic" id="Layer_1"
	 xmlns="http://www.w3.org/2000/svg" xmlns:xlink="http://www.w3.org/1999/xlink" x="0px" y="0px" viewBox="0 0 120 122"
	 xml:space="preserve">
<style type="text/css">
	.st0{fill:#FFFFFF;}
</style>
<g>
	<path d="M61.3,96.8c-13.4,0-26.9,0-40.3-0.1c-1.8,0-3.8-0.5-5.5-1.3c-2-1-2.6-3.1-2.6-5.3c0-19,0-38.1,0-57.1
		c0-3.7,1.8-5.8,5.4-6.5c1-0.2,2.1-0.2,3.1-0.2c26.5,0,53,0,79.4,0c0.8,0,1.6,0,2.4,0.1c4.4,0.4,6.6,2.7,6.6,7.2
		c0,13.3,0,26.6,0,39.8c0,5.1,0,10.2,0,15.4c0,6-2,8.1-8.1,8.1c-6.9,0-13.8,0-20.6,0C74.6,96.8,68,96.8,61.3,96.8z M61.2,70.7
		c13.4-13.1,26.6-26.1,40-39.2c-26.5,0-52.8,0-78.9,0C35.4,44.7,48.5,57.9,61.2,70.7z M71.9,68.1c-2.6,2.7-5.1,5.2-7.6,7.7
		c-2.4,2.4-3.1,2.3-5.5-0.1c-2.7-2.6-5.3-5.3-8.1-8c-9.3,7.9-18.6,15.8-28.2,24c26.2,0,51.8,0,77.9,0C90.7,83.6,81.4,75.9,71.9,68.1
		z M17.9,88.9c9.9-8.5,19.6-16.7,28.7-24.5c-9.7-9.9-19.2-19.6-28.7-29.2C17.9,52.9,17.9,70.7,17.9,88.9z M105.1,36
		c-9.5,9.3-19.3,18.9-29.2,28.6c9.7,8.1,19.3,16.1,29.2,24.4C105.1,70.8,105.1,53,105.1,36z"/>
	<path class="st0" d="M61.2,70.7c-12.7-12.8-25.8-26-38.9-39.2c26.1,0,52.4,0,78.9,0C87.8,44.6,74.6,57.6,61.2,70.7z"/>
	<path class="st0" d="M71.9,68.1c9.5,7.9,18.8,15.5,28.5,23.5c-26.1,0-51.7,0-77.9,0c9.6-8.2,18.9-16,28.2-24c2.8,2.8,5.4,5.4,8.1,8
		c2.4,2.4,3.1,2.4,5.5,0.1C66.8,73.3,69.3,70.8,71.9,68.1z"/>
	<path class="st0" d="M17.9,88.9c0-18.2,0-36,0-53.7c9.5,9.7,19,19.4,28.7,29.2C37.5,72.2,27.9,80.4,17.9,88.9z"/>
	<path class="st0" d="M105.1,36c0,17,0,34.8,0,53.1c-9.9-8.3-19.6-16.4-29.2-24.4C85.7,54.9,95.5,45.3,105.1,36z"/>
</g>
</svg>
