<?xml version="1.0" encoding="utf-8"?>
<!-- Generator: Adobe Illustrator 19.0.0, SVG Export Plug-In . SVG Version: 6.00 Build 0)  -->
<svg version="1.1" baseProfile="basic" id="Layer_1"
	 xmlns="http://www.w3.org/2000/svg" xmlns:xlink="http://www.w3.org/1999/xlink" x="0px" y="0px" viewBox="0 0 120 122"
	 xml:space="preserve">
<style type="text/css">
	.st0{fill:#FFFFFF;}
</style>
<g>
	<path d="M60.2,8.1c30.1,0,53.8,24,53.7,54.6c-0.1,29.5-24.8,53.7-54.9,53.2C29.3,115.3,5.7,90.4,6.1,60.8C6.6,32,30.7,8.1,60.2,8.1
		z M56.4,44.1c-6.3,0-12.3,0-18.4,0c-0.4,0-1.2,0.5-1.2,0.8c-0.7,4.4-1.3,8.7-2,13.2c7.5,0,14.5,0,21.6,0
		C56.4,53.5,56.4,49,56.4,44.1z M63.7,58.2c7.2,0,14.2,0,21.5,0c-0.6-4.4-1.1-8.6-1.9-12.7c-0.1-0.5-1.3-1.2-2-1.3
		c-4-0.1-8-0.1-12-0.1c-1.9,0-3.8,0-5.7,0C63.7,49,63.7,53.5,63.7,58.2z M56.2,79.8c0-4.9,0-9.5,0-14.1c-7.1,0-14,0-21.4,0
		c0.6,4.5,1.2,8.7,1.9,12.9c0.1,0.4,1,1.1,1.5,1.1C44.2,79.8,50.1,79.8,56.2,79.8z M63.7,79.8c6.3,0,12.3,0,18.4,0
		c0.4,0,1.2-0.5,1.2-0.8c0.7-4.4,1.3-8.7,2-13.2c-7.6,0-14.5,0-21.6,0C63.7,70.5,63.7,74.9,63.7,79.8z M56.4,16.1
		C49,17.4,41.1,28.5,39.4,36.6c5.6,0,11.2,0,16.9,0C56.4,29.7,56.4,23,56.4,16.1z M81.2,36.7c-3.6-9-7.6-17.1-17.3-20.8
		c0,7.2,0,14,0,20.8C69.6,36.7,75.1,36.7,81.2,36.7z M39,87.3c3.6,9,7.6,17,17.3,20.8c0-7.2,0-13.9,0-20.8
		C50.6,87.3,45,87.3,39,87.3z M63.9,87.3c0,6.9,0,13.7,0,20.6c7.3-2.2,16.2-13.2,16.7-20.6C75.1,87.3,69.5,87.3,63.9,87.3z
		 M13.2,58.2c5.3,0,9.9,0,14.4,0c0.6-4.8,1.1-9.3,1.7-14c-3.8,0-7.5-0.1-11.1,0.1c-0.6,0-1.4,0.7-1.6,1.3
		C15.4,49.6,14.3,53.7,13.2,58.2z M107,58.2c-1.2-4.5-2.3-8.7-3.4-12.9c-0.1-0.5-0.8-1.1-1.2-1.1c-3.8-0.1-7.6-0.1-11.4-0.1
		c0.6,4.8,1.2,9.4,1.7,14.1C97.2,58.2,101.7,58.2,107,58.2z M29.3,79.8c-0.6-4.9-1.2-9.5-1.7-14c-4.7,0-9.3,0-14.4,0
		c1.1,4.4,2.1,8.5,3.3,12.5c0.2,0.6,1.1,1.4,1.7,1.5C21.8,79.9,25.5,79.8,29.3,79.8z M107,65.7c-5.2,0-9.8,0-14.4,0
		c-0.6,4.7-1.1,9.3-1.7,14.1c3.8,0,7.5,0,11.2-0.1c0.5,0,1.3-0.7,1.5-1.2C104.7,74.4,105.8,70.2,107,65.7z M38.5,20.7
		c-7,3.7-12.9,8.9-17.6,16c3.5,0,6.6,0,9.6-0.1c0.4,0,1-0.7,1.2-1.2C34.1,30.6,36.3,25.7,38.5,20.7z M98.7,36.8
		c-1.8-5.1-12.6-14.8-17-15.7c2.1,4.6,4.3,9.6,6.6,14.5c0.3,0.6,1.1,1.2,1.7,1.2C92.9,36.8,95.8,36.8,98.7,36.8z M20.9,87.2
		c4.9,7.2,10.6,12.5,17.6,16c-2.2-4.9-4.4-9.7-6.7-14.6c-0.3-0.6-1-1.3-1.6-1.4C27.3,87.1,24.4,87.2,20.9,87.2z M81.6,103.3
		c7.1-3.8,12.9-8.9,17.6-16.1c-3.4,0-6.3-0.1-9.3,0.1c-0.6,0-1.3,0.7-1.6,1.3C86,93.4,83.9,98.3,81.6,103.3z"/>
	<path class="st0" d="M56.4,44.1c0,4.9,0,9.3,0,14c-7,0-14,0-21.6,0c0.6-4.4,1.2-8.8,2-13.2c0.1-0.3,0.8-0.8,1.2-0.8
		C44,44.1,50.1,44.1,56.4,44.1z"/>
	<path class="st0" d="M63.7,58.2c0-4.7,0-9.2,0-14c1.9,0,3.8,0,5.7,0c4,0,8-0.1,12,0.1c0.7,0,1.9,0.7,2,1.3
		c0.7,4.1,1.2,8.3,1.9,12.7C77.9,58.2,71,58.2,63.7,58.2z"/>
	<path class="st0" d="M56.2,79.8c-6.1,0-12.1,0-18,0c-0.5,0-1.4-0.6-1.5-1.1c-0.7-4.2-1.3-8.5-1.9-12.9c7.4,0,14.3,0,21.4,0
		C56.2,70.3,56.2,74.9,56.2,79.8z"/>
	<path class="st0" d="M63.7,79.8c0-4.9,0-9.3,0-14c7,0,14,0,21.6,0c-0.7,4.4-1.3,8.8-2,13.2c-0.1,0.3-0.8,0.8-1.2,0.8
		C76.1,79.8,70,79.8,63.7,79.8z"/>
	<path class="st0" d="M56.4,16.1c0,6.9,0,13.6,0,20.5c-5.7,0-11.3,0-16.9,0C41.1,28.5,49,17.4,56.4,16.1z"/>
	<path class="st0" d="M81.2,36.7c-6.1,0-11.5,0-17.3,0c0-6.9,0-13.7,0-20.8C73.5,19.6,77.5,27.7,81.2,36.7z"/>
	<path class="st0" d="M39,87.3c6,0,11.6,0,17.3,0c0,6.9,0,13.6,0,20.8C46.6,104.4,42.6,96.3,39,87.3z"/>
	<path class="st0" d="M63.9,87.3c5.6,0,11.2,0,16.7,0c-0.5,7.4-9.4,18.4-16.7,20.6C63.9,101.1,63.9,94.3,63.9,87.3z"/>
	<path class="st0" d="M13.2,58.2c1.1-4.4,2.2-8.5,3.3-12.6c0.2-0.6,1-1.3,1.6-1.3c3.6-0.1,7.3-0.1,11.1-0.1c-0.6,4.7-1.1,9.3-1.7,14
		C23.1,58.2,18.5,58.2,13.2,58.2z"/>
	<path class="st0" d="M107,58.2c-5.2,0-9.8,0-14.4,0c-0.6-4.7-1.1-9.2-1.7-14.1c3.8,0,7.6,0,11.4,0.1c0.4,0,1.1,0.7,1.2,1.1
		C104.7,49.5,105.8,53.7,107,58.2z"/>
	<path class="st0" d="M29.3,79.8c-3.8,0-7.4,0.1-11.1-0.1c-0.6,0-1.5-0.8-1.7-1.5c-1.2-4-2.2-8.1-3.3-12.5c5.1,0,9.7,0,14.4,0
		C28.1,70.3,28.7,74.9,29.3,79.8z"/>
	<path class="st0" d="M107,65.7c-1.2,4.5-2.2,8.7-3.4,12.8c-0.1,0.5-0.9,1.2-1.5,1.2c-3.7,0.1-7.5,0.1-11.2,0.1
		c0.6-4.8,1.2-9.4,1.7-14.1C97.1,65.7,101.7,65.7,107,65.7z"/>
	<path class="st0" d="M38.5,20.7c-2.3,5-4.5,9.9-6.7,14.8c-0.2,0.5-0.8,1.2-1.2,1.2c-3.1,0.1-6.1,0.1-9.6,0.1
		C25.7,29.6,31.5,24.4,38.5,20.7z"/>
	<path class="st0" d="M98.7,36.8c-2.9,0-5.8,0.1-8.7-0.1c-0.6,0-1.4-0.6-1.7-1.2c-2.3-4.9-4.5-9.8-6.6-14.5
		C86.2,22,96.9,31.7,98.7,36.8z"/>
	<path class="st0" d="M20.9,87.2c3.5,0,6.4-0.1,9.4,0.1c0.6,0,1.3,0.8,1.6,1.4c2.3,4.8,4.4,9.7,6.7,14.6
		C31.5,99.7,25.8,94.4,20.9,87.2z"/>
	<path class="st0" d="M81.6,103.3c2.3-5,4.5-9.9,6.8-14.7c0.3-0.6,1-1.3,1.6-1.3c2.9-0.1,5.9-0.1,9.3-0.1
		C94.5,94.4,88.6,99.5,81.6,103.3z"/>
</g>
</svg>
