<?xml version="1.0" encoding="utf-8"?>
<!-- Generator: Adobe Illustrator 19.0.0, SVG Export Plug-In . SVG Version: 6.00 Build 0)  -->
<svg version="1.1" baseProfile="basic" id="Layer_1"
	 xmlns="http://www.w3.org/2000/svg" xmlns:xlink="http://www.w3.org/1999/xlink" x="0px" y="0px" viewBox="0 0 363 30"
	 xml:space="preserve">
<style type="text/css">
	.st0{fill:none;stroke:#000000;stroke-width:3;stroke-miterlimit:10;}
</style>
<path class="st0" d="M0,13.5c4,0,4,4,8.1,4c4,0,4-4,8.1-4c4,0,4,4,8.1,4c4,0,4-4,8.1-4c4,0,4,4,8.1,4c4,0,4-4,8.1-4c4,0,4,4,8.1,4
	c4,0,4-4,8.1-4c4,0,4,4,8.1,4c4,0,4-4,8.1-4c4,0,4,4,8.1,4c4,0,4-4,8.1-4c4,0,4,4,8.1,4c4,0,4-4,8.1-4c4,0,4,4,8.1,4c4,0,4-4,8.1-4
	c4,0,4,4,8.1,4c4,0,4-4,8.1-4c4,0,4,4,8.1,4c4,0,4-4,8.1-4c4,0,4,4,8.1,4c4,0,4-4,8.1-4c4,0,4,4,8.1,4c4,0,4-4,8.1-4c4,0,4,4,8.1,4
	c4,0,4-4,8.1-4c4,0,4,4,8.1,4c4,0,4-4,8.1-4c4,0,4,4,8.1,4c4,0,4-4,8.1-4c4,0,4,4,8.1,4c4,0,4-4,8.1-4c4,0,4,4,8.1,4c4,0,4-4,8.1-4
	c4,0,4,4,8.1,4c4,0,4-4,8.1-4c4,0,4,4,8.1,4c4,0,4-4,8.1-4c4,0,4,4,8.1,4c4,0,4-4,8.1-4c4,0,4,4,8.1,4c4,0,4-4,8.1-4c4,0,4,4,8.1,4
	c4,0,4-4,8.1-4c4,0,4,4,8.1,4"/>
</svg>
