<?xml version="1.0" encoding="utf-8"?>
<!-- Generator: Adobe Illustrator 19.0.0, SVG Export Plug-In . SVG Version: 6.00 Build 0)  -->
<svg version="1.1" baseProfile="basic" id="Layer_1"
	 xmlns="http://www.w3.org/2000/svg" xmlns:xlink="http://www.w3.org/1999/xlink" x="0px" y="0px" viewBox="0 0 57 63"
	 xml:space="preserve">
<style type="text/css">
	.st0{fill:#FFFFFF;}
</style>
<g>
	<g id="XMLID_1_">
		<g>
			<path d="M29.5,12.6c10.9,0,19.9,8.9,19.9,19.9s-8.9,19.9-19.9,19.9S9.6,43.4,9.6,32.5S18.5,12.6,29.5,12.6z M40,41.5V23.2
				c0-0.8-0.7-1.5-1.6-1.5H20.4c-0.9,0-1.6,0.7-1.6,1.5v18.3c0,0.8,0.7,1.5,1.6,1.5h18.1C39.3,43,40,42.3,40,41.5z"/>
			<path class="st0" d="M40,23.2v18.3c0,0.8-0.7,1.5-1.6,1.5H20.4c-0.9,0-1.6-0.7-1.6-1.5V23.2c0-0.8,0.7-1.5,1.6-1.5h18.1
				C39.3,21.7,40,22.4,40,23.2z M36.8,39.5V34c0-3-1.6-4.3-3.7-4.3c-1.7,0-2.5,0.9-2.9,1.6v-1.4H27c0,0.9,0,9.6,0,9.6h3.2v-5.4
				c0-0.3,0-0.6,0.1-0.8c0.2-0.6,0.8-1.2,1.6-1.2c1.2,0,1.6,0.9,1.6,2.2v5.2H36.8z M25.3,39.5v-9.6h-3.2v9.6H25.3z M25.5,26.9
				c0-0.9-0.7-1.7-1.8-1.7s-1.8,0.7-1.8,1.7c0,0.9,0.7,1.7,1.8,1.7h0C24.8,28.6,25.5,27.8,25.5,26.9z"/>
			<path d="M36.8,34v5.5h-3.2v-5.2c0-1.3-0.5-2.2-1.6-2.2c-0.9,0-1.4,0.6-1.6,1.2c-0.1,0.2-0.1,0.5-0.1,0.8v5.4H27c0,0,0-8.7,0-9.6
				h3.2v1.4c0,0,0,0,0,0h0v0c0.4-0.7,1.2-1.6,2.9-1.6C35.2,29.7,36.8,31,36.8,34z"/>
			<rect x="22.1" y="29.9" width="3.2" height="9.6"/>
			<path d="M23.7,25.3c1.1,0,1.8,0.7,1.8,1.7c0,0.9-0.7,1.7-1.8,1.7h0c-1.1,0-1.8-0.7-1.8-1.7C21.9,26,22.6,25.3,23.7,25.3z"/>
		</g>
		<g>
		</g>
	</g>
</g>
</svg>
