<?xml version="1.0" encoding="utf-8"?>
<!-- Generator: Adobe Illustrator 19.0.0, SVG Export Plug-In . SVG Version: 6.00 Build 0)  -->
<svg version="1.1" baseProfile="basic" id="Layer_1"
	 xmlns="http://www.w3.org/2000/svg" xmlns:xlink="http://www.w3.org/1999/xlink" x="0px" y="0px" viewBox="0 0 120 122"
	 xml:space="preserve">
<style type="text/css">
	.st0{fill:#FFFFFF;}
</style>
<g>
	<path d="M39.6,56c0-2.1-0.1-4.1,0-6.1c0.1-3.6,2.3-6.3,5.6-7.1c3.3-0.7,6.5,0.7,7.9,3.7c0.5,1.1,0.7,2.3,0.8,3.5
		c0.1,1.9,0,3.8,0,5.7c4,0,7.9,0,11.9,0c0-2,0-4.1,0-6.1c0.1-3.7,2.8-6.6,6.6-7c3.3-0.3,6.8,2.1,7.5,5.5c0.4,1.9,0.2,4,0.3,6
		c0,0.6,0,1.2,0,1.5c3.1,1,6.1,1.7,8.8,3c7.2,3.4,12,9,14.3,16.7c2.3,7.7,4.5,15.5,6.6,23.3c2.1,7.5-2.9,14-10.6,14
		c-26.3,0-52.6,0-78.9,0c-7.9,0-12.8-6.5-10.7-14c2.1-7.5,4.2-15.1,6.4-22.5c3.4-11.2,10.9-17.8,22.5-19.8C39,56.1,39.2,56,39.6,56z
		 M75.8,94.2c0-1.4,0-2.8,0-4.2c0-1.4-0.7-2.2-2-2.2c-3,0-6,0-9,0c-1.3,0-2.1,0.7-2.1,2c0,3,0,6.1,0,9.1c0,1.2,0.7,2,2,2
		c3,0,6.1,0,9.1,0c1.3,0,2-0.7,2-2.1C75.8,97.2,75.8,95.7,75.8,94.2z M57.3,94.4c0-1.4,0-2.8,0-4.2c0-1.7-0.6-2.4-2.2-2.4
		c-2.9,0-5.8,0-8.6,0c-1.5,0-2.3,0.8-2.3,2.2c0,2.9,0,5.9,0,8.8c0,1.4,0.7,2.1,2.2,2.1c2.9,0,5.9,0,8.8,0c1.5,0,2.1-0.7,2.2-2.3
		C57.3,97.2,57.3,95.8,57.3,94.4z M69.4,69.3c-1.6,0-3.1,0-4.7,0c-1.2,0-1.9,0.7-1.9,1.8c-0.1,3.1-0.1,6.2,0,9.3
		c0,1.2,0.7,1.9,2,1.9c3,0,6.1,0,9.1,0c1.3,0,1.9-0.7,1.9-2c0-3,0-6,0-9c0-1.4-0.7-2.1-2.2-2.1C72.2,69.3,70.8,69.2,69.4,69.3z
		 M44.2,75.7c0,1.5,0,3,0,4.6c0,1.3,0.6,2,1.9,2c3,0,6.1,0,9.1,0c1.3,0,2-0.7,2-1.9c0-3,0-6.1,0-9.1c0-1.2-0.6-2-1.9-2
		c-3,0-6.1,0-9.1,0c-1.4,0-2,0.7-2,2.1C44.2,72.8,44.2,74.3,44.2,75.7z"/>
	<path d="M60,15.2c10.2,0,20.5,0,30.7,0c8.8,0,15.2,6.2,15.4,15c0.1,3.2,0,6.4,0,9.6c0,3.6-2,5.7-5.6,5.8c-4.4,0.1-8.8,0.1-13.2,0
		c-3.3-0.1-5.2-2-5.5-5.3c-0.2-2.4-1.6-3.7-4-3.7c-11.9,0-23.8,0-35.7,0c-2.3,0-3.7,1.3-4,3.6c-0.5,3.8-2.3,5.4-6.1,5.5
		c-4,0-8.1,0-12.1,0c-4,0-6.1-2.2-6.1-6.2c0-3.7-0.1-7.5,0.2-11.2c0.8-7.6,7.1-13.1,14.8-13.1C39.2,15.1,49.6,15.2,60,15.2z"/>
	<path class="st0" d="M75.8,94.2c0,1.5,0,3,0,4.6c0,1.3-0.7,2.1-2,2.1c-3,0-6.1,0-9.1,0c-1.3,0-2-0.7-2-2c0-3,0-6.1,0-9.1
		c0-1.3,0.8-2,2.1-2c3,0,6,0,9,0c1.4,0,2.1,0.8,2,2.2C75.8,91.4,75.8,92.8,75.8,94.2z"/>
	<path class="st0" d="M57.3,94.4c0,1.4,0,2.8,0,4.2c0,1.6-0.6,2.2-2.2,2.3c-2.9,0-5.9,0-8.8,0c-1.4,0-2.1-0.8-2.2-2.1
		c0-2.9,0-5.9,0-8.8c0-1.4,0.8-2.2,2.3-2.2c2.9,0,5.8,0,8.6,0c1.6,0,2.2,0.7,2.2,2.4C57.3,91.5,57.3,92.9,57.3,94.4z"/>
	<path class="st0" d="M69.4,69.3c1.4,0,2.8,0,4.3,0c1.4,0,2.2,0.6,2.2,2.1c0,3,0,6,0,9c0,1.3-0.7,2-1.9,2c-3,0-6.1,0-9.1,0
		c-1.3,0-2-0.7-2-1.9c-0.1-3.1-0.1-6.2,0-9.3c0-1.1,0.7-1.8,1.9-1.8C66.2,69.3,67.8,69.3,69.4,69.3z"/>
	<path class="st0" d="M44.2,75.7c0-1.5,0-2.9,0-4.4c0-1.4,0.6-2.1,2-2.1c3,0,6.1,0,9.1,0c1.3,0,1.9,0.7,1.9,2c0,3,0,6.1,0,9.1
		c0,1.2-0.7,1.9-2,1.9c-3,0-6.1,0-9.1,0c-1.3,0-1.9-0.7-1.9-2C44.2,78.8,44.2,77.3,44.2,75.7z"/>
</g>
</svg>
