<?xml version="1.0" encoding="utf-8"?>
<!-- Generator: Adobe Illustrator 19.0.0, SVG Export Plug-In . SVG Version: 6.00 Build 0)  -->
<svg version="1.1" baseProfile="basic" id="Layer_1"
	 xmlns="http://www.w3.org/2000/svg" xmlns:xlink="http://www.w3.org/1999/xlink" x="0px" y="0px" viewBox="0 0 1160 991"
	 xml:space="preserve">
<g>
	<path d="M477.4,316.6h204.8v51.2h25.6v-51.2c0-14.1-11.5-25.6-25.6-25.6H477.4c-14.1,0-25.6,11.5-25.6,25.6v51.2h25.6V316.6z
		 M477.4,316.6"/>
	<path d="M759,393.4H400.6c-14.1,0-25.6,11.5-25.6,25.6v128c0,14.2,11.5,25.6,25.6,25.6h51.2V675c0,14.2,11.5,25.6,25.6,25.6h204.8
		c14.2,0,25.6-11.5,25.6-25.6V572.6H759c14.2,0,25.6-11.5,25.6-25.6V419C784.6,404.9,773.2,393.4,759,393.4L759,393.4z M682.2,675
		H477.4V495.8h204.8V675z M733.4,470.2c-14.1,0-25.6-11.4-25.6-25.6c0-14.1,11.4-25.6,25.6-25.6c14.2,0,25.6,11.5,25.6,25.6
		C759,458.8,747.6,470.2,733.4,470.2L733.4,470.2z M733.4,470.2"/>
	<rect x="503" y="521.4" width="102.4" height="25.6"/>
	<rect x="503" y="572.6" width="153.6" height="25.6"/>
	<rect x="503" y="623.8" width="153.6" height="25.6"/>
</g>
</svg>
